HIERARCHY
ROOT joint_0
{
	OFFSET 0.000000 0.000000 0.000000
	CHANNELS 6 Xposition Yposition Zposition Zrotation Yrotation Xrotation 
	JOINT joint_1
	{
		OFFSET 0.587158 0.057678 95.682007
		CHANNELS 3 Zrotation Yrotation Xrotation
		JOINT joint_2
		{
			OFFSET -7.116699 -0.219910 87.157959
			CHANNELS 3 Zrotation Yrotation Xrotation
			JOINT joint_3
			{
				OFFSET -5.892822 -0.290222 87.151001
				CHANNELS 3 Zrotation Yrotation Xrotation
				JOINT joint_4
				{
					OFFSET 5.544678 -0.099609 123.768066
					CHANNELS 3 Zrotation Yrotation Xrotation
					JOINT joint_5
					{
						OFFSET 41.981201 4.519775 84.257935
						CHANNELS 3 Zrotation Yrotation Xrotation
						End Site
						{
							OFFSET 0.000000 0.000000 0.000000
						}
					}
				}
				JOINT joint_6
				{
					OFFSET 3.940918 -26.976501 69.308105
					CHANNELS 3 Zrotation Yrotation Xrotation
					JOINT joint_7
					{
						OFFSET 4.776123 -152.592468 -16.842041
						CHANNELS 3 Zrotation Yrotation Xrotation
						JOINT joint_8
						{
							OFFSET 54.421875 -30.424072 -248.864014
							CHANNELS 3 Zrotation Yrotation Xrotation
							JOINT joint_9
							{
								OFFSET 42.120117 -33.387878 -236.524963
								CHANNELS 3 Zrotation Yrotation Xrotation
								End Site
								{
									OFFSET 0.000000 0.000000 0.000000
								}
							}
						}
					}
				}
				JOINT joint_10
				{
					OFFSET 2.312012 26.904114 69.425049
					CHANNELS 3 Zrotation Yrotation Xrotation
					JOINT joint_11
					{
						OFFSET 0.971436 152.197815 -20.626953
						CHANNELS 3 Zrotation Yrotation Xrotation
						JOINT joint_12
						{
							OFFSET 49.954102 28.991455 -249.970093
							CHANNELS 3 Zrotation Yrotation Xrotation
							JOINT joint_13
							{
								OFFSET 48.146973 19.598389 -236.919922
								CHANNELS 3 Zrotation Yrotation Xrotation
								End Site
								{
									OFFSET 0.000000 0.000000 0.000000
								}
							}
						}
					}
				}
			}
		}
	}
	JOINT joint_14
	{
		OFFSET 16.305664 -89.442932 -108.224976
		CHANNELS 3 Zrotation Yrotation Xrotation
		JOINT joint_15
		{
			OFFSET -22.282471 13.437134 -412.904968
			CHANNELS 3 Zrotation Yrotation Xrotation
			JOINT joint_16
			{
				OFFSET -45.426025 14.484802 -445.892029
				CHANNELS 3 Zrotation Yrotation Xrotation
				JOINT joint_17
				{
					OFFSET 173.389404 -9.944031 -76.473001
					CHANNELS 3 Zrotation Yrotation Xrotation
					End Site
					{
						OFFSET 0.000000 0.000000 0.000000
					}
				}
			}
		}
	}
	JOINT joint_18
	{
		OFFSET 13.392822 89.408875 -108.653992
		CHANNELS 3 Zrotation Yrotation Xrotation
		JOINT joint_19
		{
			OFFSET -29.032959 24.483521 -411.977966
			CHANNELS 3 Zrotation Yrotation Xrotation
			JOINT joint_20
			{
				OFFSET -30.530029 28.986328 -446.453018
				CHANNELS 3 Zrotation Yrotation Xrotation
				JOINT joint_21
				{
					OFFSET 170.330078 33.400757 -76.698997
					CHANNELS 3 Zrotation Yrotation Xrotation
					End Site
					{
						OFFSET 0.000000 0.000000 0.000000
					}
				}
			}
		}
	}
}
MOTION
Frames: 13
Frame Time: 0.016667
-2053.696777 906.203979 1069.993042 -6.548407 9.274421 0.740754 -0.625902 1.172612 1.528986 -0.825760 -0.081406 -0.367645 -0.717638 0.055002 0.280663 0.839512 -16.239510 2.185548 0.000000 0.000000 0.000000 5.733470 -24.351455 -6.414428 -65.872812 -8.050610 10.788148 -165.941818 -49.449917 -94.426140 0.000000 0.000000 0.000000 -0.000030 -32.984489 6.841622 45.588999 -12.109250 0.336867 20.392449 -52.621549 -108.656714 0.000000 0.000000 0.000000 1.300808 -28.857255 -13.754487 4.240642 42.067534 9.497726 2.578362 5.823266 1.518189 0.000000 0.000000 0.000000 0.415968 -8.820822 0.689421 3.015347 9.889607 -2.150770 2.270854 -2.030118 1.367389 0.000000 0.000000 0.000000 
-2036.320068 904.971375 1072.911011 -6.562720 9.527961 0.778149 -0.587132 1.622462 1.926015 -0.914399 -0.217491 -0.382913 -0.716634 0.129367 0.330417 0.836395 -16.515203 2.143156 0.000000 0.000000 0.000000 4.827526 -30.873975 -5.261431 -86.790811 -6.303718 12.795030 19.473412 -69.591264 116.792073 0.000000 0.000000 0.000000 -0.220991 -32.494539 7.401981 54.669426 -10.836067 -1.369351 23.952787 -67.282311 -116.291036 0.000000 0.000000 0.000000 0.911406 -32.397005 -14.652235 4.965372 47.359208 10.386235 2.781784 6.363473 1.706620 0.000000 0.000000 0.000000 0.244977 -9.028856 0.597311 3.230052 11.437890 -2.077529 2.564809 -1.336773 1.346064 0.000000 0.000000 0.000000 
-2018.675903 902.770203 1076.227051 -6.731598 9.907503 0.696484 -0.427923 2.159222 2.451722 -0.849781 -0.362338 -0.455888 -0.496140 0.258407 0.374079 0.809918 -17.218450 2.112785 0.000000 0.000000 0.000000 3.062813 -32.297144 -3.407097 -86.531445 -7.821592 11.611561 13.875766 -69.460718 123.987953 0.000000 0.000000 0.000000 -0.123842 -41.256875 7.266480 100.305597 -10.013046 -4.821033 28.562521 -86.682378 -161.257381 0.000000 0.000000 0.000000 0.429993 -35.816717 -15.216483 5.522391 51.435731 10.923677 2.670529 5.139613 1.643301 0.000000 0.000000 0.000000 0.042738 -9.474142 0.790629 3.486791 13.171259 -2.169178 2.909597 -0.348765 1.287192 0.000000 0.000000 0.000000 
-2001.444214 900.445618 1078.973022 -6.730491 10.150699 0.674949 -0.341207 2.651580 2.959418 -0.792034 -0.464197 -0.565958 -0.216624 0.373705 0.449015 0.757664 -17.778032 2.236699 0.000000 0.000000 0.000000 1.275866 -34.669574 -1.739214 -88.814659 -8.884191 10.206399 24.552438 -58.816706 120.350730 0.000000 0.000000 0.000000 1.078728 -52.672821 5.774278 -178.776460 -9.400360 -28.085237 -0.722201 -78.722336 151.466096 0.000000 0.000000 0.000000 0.167665 -38.249985 -15.619092 5.742619 52.627795 10.973514 2.632166 3.536039 1.529187 0.000000 0.000000 0.000000 -0.056981 -9.997875 1.017725 3.782672 15.132245 -2.399071 3.265511 0.812224 1.199713 0.000000 0.000000 0.000000 
-1985.099609 898.594543 1081.161987 -6.441286 10.186018 0.707454 -0.275628 3.061627 3.573602 -0.738931 -0.498859 -0.717691 -0.067805 0.500041 0.543114 0.547770 -18.078915 2.524769 0.000000 0.000000 0.000000 -0.027906 -35.611004 -1.018000 -90.816674 -9.425044 9.912210 33.945495 -45.670811 118.573146 0.000000 0.000000 0.000000 2.623261 -45.486393 4.130920 163.469986 -10.588580 -20.118790 110.980677 33.292499 117.086843 0.000000 0.000000 0.000000 0.348193 -39.049121 -15.930458 5.393874 49.007362 10.358448 2.799272 1.772111 1.412455 0.000000 0.000000 0.000000 0.129298 -10.632001 1.185369 4.188642 17.346807 -2.638763 3.695309 2.267833 1.087323 0.000000 0.000000 0.000000 
-1969.168579 896.622070 1082.780029 -5.866306 10.020025 0.823771 -0.215359 3.535986 4.172220 -0.714523 -0.567548 -0.871348 -0.022431 0.634407 0.651650 0.317011 -18.248396 2.919981 0.000000 0.000000 0.000000 -0.920566 -34.212160 -0.869921 -84.242720 -9.982377 8.131714 -102.086008 -70.919355 -127.666024 0.000000 0.000000 0.000000 3.072703 -28.215614 3.028234 83.865366 -5.107803 -2.141798 169.178106 -8.208325 102.992440 0.000000 0.000000 0.000000 0.689353 -38.276947 -16.140209 4.561282 41.590675 9.125245 2.844026 0.955524 1.306978 0.000000 0.000000 0.000000 0.483446 -11.309324 1.332706 4.590403 19.792650 -2.859948 4.121610 3.992502 0.916472 0.000000 0.000000 0.000000 
-1952.903564 893.584839 1082.814941 -5.062690 9.622029 1.168767 -0.207084 3.983734 4.351406 -0.722264 -0.721310 -0.899482 -0.117694 0.731602 0.727904 0.029490 -18.083279 3.252625 0.000000 0.000000 0.000000 -1.574495 -33.233689 -0.758782 -78.983808 -10.101178 6.275490 -134.758936 -47.961121 -108.346459 0.000000 0.000000 0.000000 3.002236 -17.195314 2.063312 53.379034 -5.073807 -1.898514 -179.182408 -45.822571 109.953502 0.000000 0.000000 0.000000 0.879957 -36.713378 -16.320441 3.629617 34.067198 7.726314 2.628830 2.561727 1.291180 0.000000 0.000000 0.000000 0.677955 -11.824861 1.512677 4.785190 22.461789 -3.260062 4.345952 5.613332 0.670357 0.000000 0.000000 0.000000 
-1935.729736 888.948303 1081.006958 -4.482879 9.177424 1.650117 -0.269333 3.861240 4.131296 -0.610994 -0.714229 -0.879550 -0.049371 0.739241 0.699013 -0.237316 -17.313562 3.457567 0.000000 0.000000 0.000000 -1.952278 -32.865293 -0.580127 -80.839553 -9.747784 6.459154 -143.508981 -29.790148 -106.293131 0.000000 0.000000 0.000000 2.725791 -13.387166 1.640906 43.798009 -5.314345 0.143592 178.566872 -53.884965 119.758114 0.000000 0.000000 0.000000 1.145912 -35.157800 -16.333349 2.938103 27.824446 6.476560 2.469525 6.930874 1.495747 0.000000 0.000000 0.000000 0.613065 -12.078638 1.913585 4.766260 25.116400 -4.065401 4.280161 6.961411 0.350192 0.000000 0.000000 0.000000 
-1918.222900 883.248047 1077.615967 -3.931175 8.627113 2.230082 -0.347116 3.476942 3.637892 -0.468771 -0.642297 -0.802131 0.032745 0.683753 0.615165 -0.480445 -16.186564 3.597010 0.000000 0.000000 0.000000 -1.857857 -30.760207 -0.667932 -77.305192 -9.252391 6.065895 -149.547394 -24.594516 -107.994752 0.000000 0.000000 0.000000 2.310163 -11.648911 1.652399 40.649692 -5.037370 2.308452 175.674844 -54.835359 126.231720 0.000000 0.000000 0.000000 1.466322 -33.236776 -16.201150 2.326803 21.959475 5.180535 2.269949 12.622811 1.779013 0.000000 0.000000 0.000000 0.368510 -12.259970 2.511279 4.606702 27.961525 -5.196859 3.998060 8.281624 -0.060958 0.000000 0.000000 0.000000 
-1901.364014 877.152344 1072.415039 -3.232707 8.002928 2.820744 -0.486394 3.211414 3.024569 -0.430888 -0.618375 -0.619427 -0.013713 0.627042 0.548455 -0.627881 -15.249444 3.697344 0.000000 0.000000 0.000000 -1.525823 -28.319273 -0.939967 -70.760627 -8.855826 5.159748 -150.705096 -32.008698 -111.186859 0.000000 0.000000 0.000000 1.935657 -10.588373 1.746390 38.480322 -4.808862 4.580795 171.205755 -55.603510 133.225711 0.000000 0.000000 0.000000 1.435152 -31.373244 -15.911796 1.363895 18.302740 3.904532 1.371443 15.527789 1.586682 0.000000 0.000000 0.000000 -0.006963 -12.962477 3.399145 4.465992 31.654123 -6.592300 3.751089 9.877963 -0.534240 0.000000 0.000000 0.000000 
-1885.095703 870.181763 1064.115967 -2.396465 7.430831 3.223986 -0.808125 2.859972 2.657246 -0.501359 -0.555935 -0.489013 -0.101930 0.583797 0.505787 -0.625876 -14.653490 3.736276 0.000000 0.000000 0.000000 -1.226131 -29.125503 -1.272535 -74.304473 -7.994137 5.411357 -135.122556 -46.778662 -116.950950 0.000000 0.000000 0.000000 1.556121 -9.201821 1.924787 33.759285 -4.828207 7.486081 159.695321 -58.080030 148.004884 0.000000 0.000000 0.000000 0.652124 -29.957885 -14.960071 -0.508014 18.403532 2.500683 -1.001187 12.132307 0.375846 0.000000 0.000000 0.000000 -0.540389 -14.644267 5.015206 4.345524 36.660307 -8.324240 3.652002 12.727206 -1.252200 0.000000 0.000000 0.000000 
-1869.476440 862.814758 1054.006958 -1.525121 6.824665 3.404138 -1.232912 2.574563 2.618377 -0.632980 -0.514239 -0.489742 -0.203313 0.533277 0.470952 -0.576820 -14.243766 3.713886 0.000000 0.000000 0.000000 -1.083438 -34.051519 -1.455144 -86.965095 -7.058600 5.076057 4.763464 -56.261583 139.839786 0.000000 0.000000 0.000000 0.960792 -5.849038 2.208695 24.220574 -5.128912 11.212939 136.565607 -57.286502 175.943807 0.000000 0.000000 0.000000 -0.374238 -28.678325 -13.648295 -2.600877 20.610971 1.199294 -4.022302 5.435741 -1.265225 0.000000 0.000000 0.000000 -1.146762 -16.836435 7.154420 4.145953 42.243662 -10.123873 3.720515 16.689998 -2.228486 0.000000 0.000000 0.000000 
-1855.658447 857.158447 1045.723999 -0.936492 6.163732 3.429785 -1.616807 2.770015 2.763261 -0.708021 -0.578497 -0.523325 -0.291010 0.526767 0.455299 -0.598655 -14.121841 3.681892 0.000000 0.000000 0.000000 -0.018881 -27.505360 -2.314242 -69.905719 -7.197509 5.454189 1.103413 -41.737935 134.971915 0.000000 0.000000 0.000000 0.651991 -4.263319 2.229354 15.907416 -3.799556 14.885777 110.540406 -47.541689 -159.324469 0.000000 0.000000 0.000000 -0.837845 -27.589864 -12.908449 -3.955516 22.837420 0.662737 -6.260761 0.191090 -2.467816 0.000000 0.000000 0.000000 -1.522322 -18.997995 9.077124 4.067102 47.558299 -11.583545 4.223821 19.579433 -2.909629 0.000000 0.000000 0.000000 
